<svg version="1.1" viewBox="0 0 30 34" height="34px" width="30px" xmlns:xlink="http://www.w3.org/1999/xlink" xmlns="http://www.w3.org/2000/svg">
<g id="surface1">
<path d="M 0 8.5 L 0 17 L 17.144531 17 L 17.144531 0 L 0 0 Z M 8.941406 3.121094 C 9.902344 3.234375 10.628906 3.433594 11.382812 3.792969 C 11.992188 4.089844 12.152344 4.210938 12.691406 4.742188 C 13.152344 5.199219 13.367188 5.472656 13.582031 5.890625 C 14.089844 6.867188 14.285156 8.046875 14.136719 9.195312 C 13.957031 10.539062 13.546875 11.410156 12.667969 12.3125 C 11.519531 13.480469 10.132812 14.011719 8.195312 14.011719 L 7.367188 14.011719 L 7.367188 10.757812 L 7.957031 10.757812 C 9.964844 10.75 11.007812 9.707031 10.714844 7.976562 C 10.621094 7.417969 10.371094 7 9.964844 6.726562 C 9.441406 6.367188 9.105469 6.296875 7.921875 6.261719 L 6.832031 6.230469 L 6.832031 13.945312 L 3.480469 13.945312 L 3.480469 3.054688 L 5.914062 3.054688 C 7.246094 3.054688 8.613281 3.085938 8.941406 3.121094 Z M 8.941406 3.121094" style="stroke:none;fill-rule:nonzero;fill:rgb(0%,0%,0%);fill-opacity:1;"></path>
</g>
</svg>
