<svg viewBox="0 0 448 512" xmlns="http://www.w3.org/2000/svg"> <g stroke="none" fill="#000000" transform="translate(0.000000,256.000000) scale(0.100000,-0.100000)"> <path d="M0 1280 l0 -1280 1280 0 1280 0 0 1280 0 1280 -1280 0 -1280 0 0 -1280z m1335 810 c144 -17 252 -47 365 -101 91 -45 115 -63 195 -143 69 -69 101 -110 133 -173 76 -147 105 -325 83 -498 -27 -202 -88 -333 -219 -469 -172 -176 -379 -256 -668 -256 l-124 0 0 245 0 245 88 0 c300 1 456 158 412 419 -14 84 -51 147 -112 188 -78 54 -128 65 -305 70 l-163 5 0 -581 0 -581 -250 0 -250 0 0 820 0 820 363 0 c199 0 403 -5 452 -10z"></path> </g> </svg>